<svg width="1000" height="300" viewBox="0 0 1000 300" fill="none" xmlns="http://www.w3.org/2000/svg">
<g clip-path="url(#clip0)">
<path d="M62.4865 -80.145V-116.307H98.8945V-80.145H62.4865ZM80.6905 -81.621C83.0685 -81.621 85.2825 -82.031 87.3325 -82.851C89.3825 -83.671 91.1455 -84.819 92.6215 -86.295C94.0975 -87.771 95.2455 -89.534 96.0655 -91.584C96.9675 -93.634 97.4185 -95.848 97.4185 -98.226C97.4185 -100.604 96.9675 -102.818 96.0655 -104.868C95.2455 -106.918 94.0975 -108.681 92.6215 -110.157C91.1455 -111.633 89.3825 -112.781 87.3325 -113.601C85.2825 -114.421 83.0685 -114.831 80.6905 -114.831C78.3125 -114.831 76.0985 -114.421 74.0485 -113.601C71.9985 -112.781 70.2355 -111.633 68.7595 -110.157C67.2835 -108.681 66.0945 -106.918 65.1925 -104.868C64.3725 -102.818 63.9625 -100.604 63.9625 -98.226C63.9625 -95.848 64.3725 -93.634 65.1925 -91.584C66.0945 -89.534 67.2835 -87.771 68.7595 -86.295C70.2355 -84.819 71.9985 -83.671 74.0485 -82.851C76.0985 -82.031 78.3125 -81.621 80.6905 -81.621ZM185.906 -78.3V-134.88H242.978V-78.3H185.906ZM214.442 -78.792C218.542 -78.792 222.314 -79.489 225.758 -80.883C229.202 -82.277 232.154 -84.204 234.614 -86.664C237.074 -89.206 239.001 -92.158 240.395 -95.52C241.789 -98.964 242.486 -102.654 242.486 -106.59C242.486 -110.526 241.789 -114.175 240.395 -117.537C239.001 -120.981 237.074 -123.933 234.614 -126.393C232.154 -128.935 229.202 -130.903 225.758 -132.297C222.314 -133.691 218.542 -134.388 214.442 -134.388C210.342 -134.388 206.57 -133.691 203.126 -132.297C199.682 -130.903 196.73 -128.935 194.27 -126.393C191.81 -123.933 189.883 -120.981 188.489 -117.537C187.095 -114.175 186.398 -110.526 186.398 -106.59C186.398 -102.654 187.095 -98.964 188.489 -95.52C189.883 -92.158 191.81 -89.206 194.27 -86.664C196.73 -84.204 199.682 -82.277 203.126 -80.883C206.57 -79.489 210.342 -78.792 214.442 -78.792ZM214.442 -84.819C211.408 -84.819 208.579 -85.352 205.955 -86.418C203.413 -87.484 201.199 -88.96 199.313 -90.846C197.509 -92.814 196.074 -95.11 195.008 -97.734C193.942 -100.44 193.409 -103.392 193.409 -106.59C193.409 -109.788 193.942 -112.699 195.008 -115.323C196.074 -118.029 197.509 -120.325 199.313 -122.211C201.199 -124.179 203.413 -125.696 205.955 -126.762C208.579 -127.828 211.408 -128.361 214.442 -128.361C217.476 -128.361 220.264 -127.828 222.806 -126.762C225.43 -125.696 227.644 -124.179 229.448 -122.211C231.334 -120.325 232.81 -118.029 233.876 -115.323C234.942 -112.699 235.475 -109.788 235.475 -106.59C235.475 -103.392 234.942 -100.44 233.876 -97.734C232.81 -95.11 231.334 -92.814 229.448 -90.846C227.644 -88.96 225.43 -87.484 222.806 -86.418C220.264 -85.352 217.476 -84.819 214.442 -84.819ZM311.294 -16.8V-189H348.194V-102.9H385.094V-16.8H311.294ZM451.319 -61.818V-110.526H457.592C457.592 -104.622 458.658 -99.087 460.79 -93.921C463.004 -88.837 466.038 -84.327 469.892 -80.391C473.828 -76.537 478.338 -73.503 483.422 -71.289C488.588 -69.157 494.123 -68.091 500.027 -68.091C505.931 -68.091 511.425 -69.157 516.509 -71.289C521.675 -73.503 526.185 -76.537 530.039 -80.391C533.975 -84.327 537.009 -88.837 539.141 -93.921C541.355 -99.087 542.462 -104.622 542.462 -110.526H548.735V-61.818H451.319ZM500.027 -74.979C495.107 -74.979 490.474 -75.881 486.128 -77.685C481.864 -79.571 478.092 -82.113 474.812 -85.311C471.614 -88.591 469.072 -92.363 467.186 -96.627C465.382 -100.973 464.48 -105.606 464.48 -110.526H535.574C535.574 -105.606 534.631 -100.973 532.745 -96.627C530.941 -92.363 528.399 -88.591 525.119 -85.311C521.921 -82.113 518.149 -79.571 513.803 -77.685C509.539 -75.881 504.947 -74.979 500.027 -74.979ZM614.954 -16.8V-189H651.854V-102.9H688.754V-16.8H614.954ZM822.506 -102.9H785.606V-16.8H748.706V-189H822.506V-102.9ZM882.458 -16.8V-189H919.358V-102.9H956.258V-16.8H882.458ZM101.908 -42.697H55.4135V48.2H45.8195V-52.291H101.908V-42.697ZM101.908 -23.509H74.6016V48.2H65.0075V-33.103H101.908V-23.509ZM206.017 -1.738C200.113 -1.738 194.578 -2.845 189.412 -5.059C184.328 -7.273 179.818 -10.307 175.882 -14.161C171.946 -18.097 168.871 -22.648 166.657 -27.814C164.443 -32.98 163.336 -38.515 163.336 -44.419C163.336 -50.323 164.443 -55.817 166.657 -60.901C168.871 -66.067 171.905 -70.618 175.759 -74.554C179.695 -78.49 184.246 -81.565 189.412 -83.779C194.578 -85.993 200.113 -87.1 206.017 -87.1C211.921 -87.1 217.456 -85.993 222.622 -83.779C227.788 -81.565 232.298 -78.49 236.152 -74.554C240.088 -70.7 243.163 -66.19 245.377 -61.024C247.591 -55.858 248.698 -50.323 248.698 -44.419C248.698 -38.515 247.591 -32.98 245.377 -27.814C243.245 -22.648 240.211 -18.097 236.275 -14.161C232.421 -10.307 227.911 -7.273 222.745 -5.059C217.579 -2.845 212.003 -1.738 206.017 -1.738ZM190.027 -34.948C192.651 -34.948 194.865 -35.891 196.669 -37.777C198.555 -39.663 199.498 -41.877 199.498 -44.419C199.498 -47.043 198.555 -49.257 196.669 -51.061C194.865 -52.947 192.651 -53.89 190.027 -53.89C187.485 -53.89 185.271 -52.947 183.385 -51.061C181.499 -49.257 180.556 -47.043 180.556 -44.419C180.556 -41.877 181.499 -39.663 183.385 -37.777C185.271 -35.891 187.485 -34.948 190.027 -34.948ZM222.006 -34.948C224.631 -34.948 226.845 -35.891 228.649 -37.777C230.535 -39.663 231.478 -41.877 231.478 -44.419C231.478 -47.043 230.535 -49.257 228.649 -51.061C226.845 -52.947 224.631 -53.89 222.006 -53.89C219.465 -53.89 217.251 -52.947 215.365 -51.061C213.479 -49.257 212.536 -47.043 212.536 -44.419C212.536 -41.877 213.479 -39.663 215.365 -37.777C217.251 -35.891 219.465 -34.948 222.006 -34.948ZM351.858 -124H388.758V-37.9H351.858V-124ZM314.958 -37.9H351.858V48.2H314.958V-37.9ZM497.664 -1.738C491.76 -1.738 486.225 -2.845 481.059 -5.059C475.975 -7.273 471.465 -10.307 467.529 -14.161C463.593 -18.097 460.518 -22.648 458.304 -27.814C456.09 -32.98 454.983 -38.515 454.983 -44.419C454.983 -50.323 456.09 -55.817 458.304 -60.901C460.518 -66.067 463.552 -70.618 467.406 -74.554C471.342 -78.49 475.893 -81.565 481.059 -83.779C486.225 -85.993 491.76 -87.1 497.664 -87.1C503.568 -87.1 509.103 -85.993 514.269 -83.779C519.435 -81.565 523.945 -78.49 527.799 -74.554C531.735 -70.7 534.81 -66.19 537.024 -61.024C539.238 -55.858 540.345 -50.323 540.345 -44.419C540.345 -38.515 539.238 -32.98 537.024 -27.814C534.81 -22.648 531.735 -18.097 527.799 -14.161C523.945 -10.307 519.435 -7.273 514.269 -5.059C509.103 -2.845 503.568 -1.738 497.664 -1.738ZM497.664 -10.594C502.42 -10.594 506.848 -11.455 510.948 -13.177C515.048 -14.981 518.615 -17.441 521.649 -20.557C524.765 -23.673 527.184 -27.24 528.906 -31.258C530.628 -35.358 531.489 -39.745 531.489 -44.419C531.489 -49.175 530.587 -53.603 528.783 -57.703C527.061 -61.803 524.642 -65.37 521.526 -68.404C518.41 -71.52 514.802 -73.939 510.702 -75.661C506.684 -77.383 502.338 -78.244 497.664 -78.244C492.908 -78.244 488.48 -77.342 484.38 -75.538C480.28 -73.816 476.672 -71.397 473.556 -68.281C470.522 -65.165 468.144 -61.557 466.422 -57.457C464.7 -53.439 463.839 -49.093 463.839 -44.419C463.839 -39.663 464.7 -35.235 466.422 -31.135C468.226 -27.035 470.686 -23.427 473.802 -20.311C476.918 -17.277 480.485 -14.899 484.503 -13.177C488.603 -11.455 492.99 -10.594 497.664 -10.594ZM513.654 -34.948C511.112 -34.948 508.898 -35.85 507.012 -37.654C505.126 -39.54 504.183 -41.795 504.183 -44.419C504.183 -47.043 505.126 -49.257 507.012 -51.061C508.898 -52.947 511.112 -53.89 513.654 -53.89C516.278 -53.89 518.492 -52.947 520.296 -51.061C522.182 -49.257 523.125 -47.043 523.125 -44.419C523.125 -41.877 522.182 -39.663 520.296 -37.777C518.492 -35.891 516.278 -34.948 513.654 -34.948ZM657.896 48.2H648.302V-42.697H601.808V-52.291H657.896V48.2ZM638.708 48.2H629.114V-23.509H601.808V-33.103H638.708V48.2ZM740.357 48.2V-37.9H777.257V48.2H740.357ZM880.382 -0.508V-90.544H970.418V-0.508H880.382ZM964.883 -9.364V-31.258L911.378 -85.009H889.361L964.883 -9.364ZM964.883 -39.007V-61.393L941.39 -85.009H919.25L964.883 -39.007ZM964.883 -69.265V-85.009H949.139L964.883 -69.265ZM938.192 -6.043H960.209L885.917 -80.458V-58.564L938.192 -6.043ZM909.287 -6.043H930.32L885.917 -50.815V-29.659L909.287 -6.043ZM885.917 -6.043H901.415L885.917 -21.787V-6.043ZM6.5542 113.2V27.1H43.4542V113.2H6.5542ZM189.26 63.262C183.356 63.262 177.821 62.155 172.655 59.941C167.571 57.727 163.061 54.693 159.125 50.839C155.189 46.903 152.114 42.352 149.9 37.186C147.686 32.02 146.579 26.485 146.579 20.581C146.579 14.677 147.686 9.183 149.9 4.099C152.114 -1.067 155.148 -5.618 159.002 -9.55401C162.938 -13.49 167.489 -16.565 172.655 -18.779C177.821 -20.993 183.356 -22.1 189.26 -22.1C195.164 -22.1 200.699 -20.993 205.865 -18.779C211.031 -16.565 215.541 -13.49 219.395 -9.55401C223.331 -5.7 226.406 -1.19 228.62 3.976C230.834 9.142 231.941 14.677 231.941 20.581C231.941 26.485 230.834 32.02 228.62 37.186C226.488 42.352 223.454 46.903 219.518 50.839C215.664 54.693 211.154 57.727 205.988 59.941C200.822 62.155 195.246 63.262 189.26 63.262ZM173.27 30.052C175.894 30.052 178.108 29.109 179.912 27.223C181.798 25.337 182.741 23.123 182.741 20.581C182.741 17.957 181.798 15.743 179.912 13.939C178.108 12.053 175.894 11.11 173.27 11.11C170.728 11.11 168.514 12.053 166.628 13.939C164.742 15.743 163.799 17.957 163.799 20.581C163.799 23.123 164.742 25.337 166.628 27.223C168.514 29.109 170.728 30.052 173.27 30.052ZM205.25 30.052C207.874 30.052 210.088 29.109 211.892 27.223C213.778 25.337 214.721 23.123 214.721 20.581C214.721 17.957 213.778 15.743 211.892 13.939C210.088 12.053 207.874 11.11 205.25 11.11C202.708 11.11 200.494 12.053 198.608 13.939C196.722 15.743 195.779 17.957 195.779 20.581C195.779 23.123 196.722 25.337 198.608 27.223C200.494 29.109 202.708 30.052 205.25 30.052ZM304.475 64.492V-25.544H394.511V64.492H304.475ZM388.976 55.636V33.742L335.471 -20.009H313.454L388.976 55.636ZM388.976 25.993V3.607L365.483 -20.009H343.343L388.976 25.993ZM388.976 -4.265V-20.009H373.232L388.976 -4.265ZM362.285 58.957H384.302L310.01 -15.458V6.436L362.285 58.957ZM333.38 58.957H354.413L310.01 14.185V35.341L333.38 58.957ZM310.01 58.957H325.508L310.01 43.213V58.957ZM479.478 49.855V13.693H515.886V49.855H479.478ZM497.682 48.379C500.06 48.379 502.274 47.969 504.324 47.149C506.374 46.329 508.137 45.181 509.613 43.705C511.089 42.229 512.237 40.466 513.057 38.416C513.959 36.366 514.41 34.152 514.41 31.774C514.41 29.396 513.959 27.182 513.057 25.132C512.237 23.082 511.089 21.319 509.613 19.843C508.137 18.367 506.374 17.219 504.324 16.399C502.274 15.579 500.06 15.169 497.682 15.169C495.304 15.169 493.09 15.579 491.04 16.399C488.99 17.219 487.227 18.367 485.751 19.843C484.275 21.319 483.086 23.082 482.184 25.132C481.364 27.182 480.954 29.396 480.954 31.774C480.954 34.152 481.364 36.366 482.184 38.416C483.086 40.466 484.275 42.229 485.751 43.705C487.227 45.181 488.99 46.329 491.04 47.149C493.09 47.969 495.304 48.379 497.682 48.379ZM600.807 64.492V-25.544H690.843V64.492H600.807ZM645.948 -13.49L652.344 -20.009H639.675L645.948 -13.49ZM631.065 1.393L642.012 -9.55401L631.803 -20.009H630.204L619.872 -9.677L631.065 1.393ZM616.059 -13.613L622.332 -20.009H609.786L616.059 -13.613ZM660.831 1.393L671.901 -9.677L661.815 -20.009H660.093L649.884 -9.55401L660.831 1.393ZM675.837 -13.613L682.11 -20.009H669.564L675.837 -13.613ZM606.342 -4.019L612.123 -9.677L606.342 -15.458V-4.019ZM685.308 -4.265V-15.212L679.896 -9.677L685.308 -4.265ZM616.182 16.276L627.129 5.329L616.059 -5.61801L606.342 3.976V6.436L616.182 16.276ZM675.591 16.276L685.308 6.682V3.607L675.837 -5.61801L664.767 5.452L675.591 16.276ZM645.948 16.276L657.018 5.329L645.948 -5.61801L635.001 5.329L645.948 16.276ZM631.065 31.159L642.012 20.212L631.065 9.265L620.118 20.212L631.065 31.159ZM660.831 31.159L671.778 20.212L660.831 9.388L649.884 20.335L660.831 31.159ZM606.342 26.239L612.246 20.212L606.342 14.185V26.239ZM685.308 25.993V14.554L679.527 20.212L685.308 25.993ZM616.674 45.673L627.129 35.095L616.182 24.148L606.342 34.111V35.341L616.674 45.673ZM675.345 45.673L685.308 35.587V33.742L675.591 24.148L664.767 35.095L675.345 45.673ZM645.948 46.288L657.018 35.095L645.948 24.271L635.001 35.341L645.948 46.288ZM658.617 58.957H662.184L671.409 49.732L660.831 39.031L649.884 50.224L658.617 58.957ZM629.712 58.957H633.279L642.012 50.224L631.065 39.154L620.487 49.732L629.712 58.957ZM606.342 55.882L612.738 49.609L606.342 43.213V55.882ZM685.308 55.636V43.705L679.281 49.732L685.308 55.636ZM670.056 58.957H680.634L675.345 53.668L670.056 58.957ZM611.385 58.957H621.84L616.674 53.668L611.385 58.957ZM641.151 58.957H650.745L645.948 54.16L641.151 58.957ZM763.387 64.492V-25.544H853.423V64.492H763.387ZM768.922 25.993L814.555 -20.009H792.415L768.922 3.607V25.993ZM768.922 55.636L844.444 -20.009H822.427L768.922 33.742V55.636ZM768.922 -4.265L784.666 -20.009H768.922V-4.265ZM773.596 58.957H795.613L847.888 6.436V-15.458L773.596 58.957ZM803.485 58.957H824.518L847.888 35.341V14.185L803.485 58.957ZM832.39 58.957H847.888V43.213L832.39 58.957ZM956.594 113.2V27.1H993.494V113.2H956.594ZM95.0815 178.2H85.4875V87.303H38.9935V77.709H95.0815V178.2ZM75.8935 178.2H66.2995V106.491H38.9935V96.897H75.8935V178.2ZM183.815 84.474V35.766H281.231V84.474H274.958C274.958 78.57 273.851 73.076 271.637 67.992C269.505 62.826 266.471 58.316 262.535 54.462C258.681 50.526 254.171 47.492 249.005 45.36C243.921 43.146 238.427 42.039 232.523 42.039C226.619 42.039 221.084 43.146 215.918 45.36C210.834 47.492 206.324 50.526 202.388 54.462C198.534 58.316 195.5 62.826 193.286 67.992C191.154 73.076 190.088 78.57 190.088 84.474H183.815ZM196.976 84.474C196.976 79.554 197.878 74.962 199.682 70.698C201.568 66.352 204.11 62.58 207.308 59.382C210.588 56.102 214.36 53.56 218.624 51.756C222.97 49.87 227.603 48.927 232.523 48.927C237.443 48.927 242.035 49.87 246.299 51.756C250.645 53.56 254.417 56.102 257.615 59.382C260.895 62.58 263.437 66.352 265.241 70.698C267.127 74.962 268.07 79.554 268.07 84.474H196.976ZM347.45 178.2V156.675H421.25V178.2H347.45ZM518.102 92.1V6H555.002V92.1H518.102ZM651.854 178.2V92.1H688.754V178.2H651.854ZM827.303 87.303H780.809V178.2H771.215V77.709H827.303V87.303ZM827.303 106.491H799.997V178.2H790.403V96.897H827.303V106.491ZM933.749 178.2H924.155V87.303H877.661V77.709H933.749V178.2ZM914.561 178.2H904.967V106.491H877.661V96.897H914.561V178.2ZM98.7504 193.262C92.8464 193.262 87.3114 192.155 82.1454 189.941C77.0614 187.727 72.5514 184.693 68.6154 180.839C64.6794 176.903 61.6044 172.352 59.3904 167.186C57.1764 162.02 56.0694 156.485 56.0694 150.581C56.0694 144.677 57.1764 139.183 59.3904 134.099C61.6044 128.933 64.6384 124.382 68.4924 120.446C72.4284 116.51 76.9794 113.435 82.1454 111.221C87.3114 109.007 92.8464 107.9 98.7504 107.9C104.654 107.9 110.189 109.007 115.355 111.221C120.521 113.435 125.031 116.51 128.885 120.446C132.821 124.3 135.896 128.81 138.11 133.976C140.324 139.142 141.431 144.677 141.431 150.581C141.431 156.485 140.324 162.02 138.11 167.186C135.978 172.352 132.944 176.903 129.008 180.839C125.154 184.693 120.644 187.727 115.478 189.941C110.312 192.155 104.736 193.262 98.7504 193.262ZM82.7604 160.052C85.3844 160.052 87.5984 159.109 89.4024 157.223C91.2884 155.337 92.2314 153.123 92.2314 150.581C92.2314 147.957 91.2884 145.743 89.4024 143.939C87.5984 142.053 85.3844 141.11 82.7604 141.11C80.2184 141.11 78.0044 142.053 76.1184 143.939C74.2324 145.743 73.2894 147.957 73.2894 150.581C73.2894 153.123 74.2324 155.337 76.1184 157.223C78.0044 159.109 80.2184 160.052 82.7604 160.052ZM114.74 160.052C117.364 160.052 119.578 159.109 121.382 157.223C123.268 155.337 124.211 153.123 124.211 150.581C124.211 147.957 123.268 145.743 121.382 143.939C119.578 142.053 117.364 141.11 114.74 141.11C112.198 141.11 109.984 142.053 108.098 143.939C106.212 145.743 105.269 147.957 105.269 150.581C105.269 153.123 106.212 155.337 108.098 157.223C109.984 159.109 112.198 160.052 114.74 160.052ZM244.592 243.2V157.1H281.492V243.2H244.592ZM341.444 243.2V157.1H415.244V243.2H341.444ZM470.399 152.303V142.709H553.793V152.303H470.399ZM553.793 171.491H526.487V243.2H516.893V161.897H553.793V171.491ZM507.299 243.2H497.705V171.491H470.399V161.897H507.299V243.2ZM608.948 92.525V71H682.748V92.525H608.948ZM793.991 243.2H784.397V152.303H737.903V142.709H793.991V243.2ZM774.803 243.2H765.209V171.491H737.903V161.897H774.803V243.2ZM895.148 179.855V143.693H931.556V179.855H895.148ZM913.352 178.379C915.73 178.379 917.944 177.969 919.994 177.149C922.044 176.329 923.807 175.181 925.283 173.705C926.759 172.229 927.907 170.466 928.727 168.416C929.629 166.366 930.08 164.152 930.08 161.774C930.08 159.396 929.629 157.182 928.727 155.132C927.907 153.082 926.759 151.319 925.283 149.843C923.807 148.367 922.044 147.219 919.994 146.399C917.944 145.579 915.73 145.169 913.352 145.169C910.974 145.169 908.76 145.579 906.71 146.399C904.66 147.219 902.897 148.367 901.421 149.843C899.945 151.319 898.756 153.082 897.854 155.132C897.034 157.182 896.624 159.396 896.624 161.774C896.624 164.152 897.034 166.366 897.854 168.416C898.756 170.466 899.945 172.229 901.421 173.705C902.897 175.181 904.66 176.329 906.71 177.149C908.76 177.969 910.974 178.379 913.352 178.379ZM40.0828 246.7V190.12H97.1548V246.7H40.0828ZM68.6188 246.208C72.7188 246.208 76.4908 245.511 79.9348 244.117C83.3788 242.723 86.3308 240.796 88.7908 238.336C91.2508 235.794 93.1778 232.842 94.5718 229.48C95.9658 226.036 96.6627 222.346 96.6627 218.41C96.6627 214.474 95.9658 210.825 94.5718 207.463C93.1778 204.019 91.2508 201.067 88.7908 198.607C86.3308 196.065 83.3788 194.097 79.9348 192.703C76.4908 191.309 72.7188 190.612 68.6188 190.612C64.5188 190.612 60.7468 191.309 57.3028 192.703C53.8588 194.097 50.9068 196.065 48.4468 198.607C45.9868 201.067 44.0598 204.019 42.6658 207.463C41.2718 210.825 40.5748 214.474 40.5748 218.41C40.5748 222.346 41.2718 226.036 42.6658 229.48C44.0598 232.842 45.9868 235.794 48.4468 238.336C50.9068 240.796 53.8588 242.723 57.3028 244.117C60.7468 245.511 64.5188 246.208 68.6188 246.208ZM68.6188 240.181C65.5848 240.181 62.7558 239.648 60.1318 238.582C57.5898 237.516 55.3758 236.04 53.4898 234.154C51.6858 232.186 50.2508 229.89 49.1848 227.266C48.1188 224.56 47.5858 221.608 47.5858 218.41C47.5858 215.212 48.1188 212.301 49.1848 209.677C50.2508 206.971 51.6858 204.675 53.4898 202.789C55.3758 200.821 57.5898 199.304 60.1318 198.238C62.7558 197.172 65.5848 196.639 68.6188 196.639C71.6528 196.639 74.4408 197.172 76.9828 198.238C79.6068 199.304 81.8208 200.821 83.6248 202.789C85.5108 204.675 86.9868 206.971 88.0528 209.677C89.1188 212.301 89.6518 215.212 89.6518 218.41C89.6518 221.608 89.1188 224.56 88.0528 227.266C86.9868 229.89 85.5108 232.186 83.6248 234.154C81.8208 236.04 79.6068 237.516 76.9828 238.582C74.4408 239.648 71.6528 240.181 68.6188 240.181ZM165.471 308.2V136H202.371V222.1H239.271V308.2H165.471ZM305.496 263.182V214.474H311.769C311.769 220.378 312.835 225.913 314.967 231.079C317.181 236.163 320.215 240.673 324.069 244.609C328.005 248.463 332.515 251.497 337.599 253.711C342.765 255.843 348.3 256.909 354.204 256.909C360.108 256.909 365.602 255.843 370.686 253.711C375.852 251.497 380.362 248.463 384.216 244.609C388.152 240.673 391.186 236.163 393.318 231.079C395.532 225.913 396.639 220.378 396.639 214.474H402.912V263.182H305.496ZM354.204 250.021C349.284 250.021 344.651 249.119 340.305 247.315C336.041 245.429 332.269 242.887 328.989 239.689C325.791 236.409 323.249 232.637 321.363 228.373C319.559 224.027 318.657 219.394 318.657 214.474H389.751C389.751 219.394 388.808 224.027 386.922 228.373C385.118 232.637 382.576 236.409 379.296 239.689C376.098 242.887 372.326 245.429 367.98 247.315C363.716 249.119 359.124 250.021 354.204 250.021ZM469.13 308.2V136H506.03V222.1H542.93V308.2H469.13ZM681.479 217.303H634.985V308.2H625.391V207.709H681.479V217.303ZM681.479 236.491H654.173V308.2H644.579V226.897H681.479V236.491ZM785.588 258.262C779.684 258.262 774.149 257.155 768.983 254.941C763.899 252.727 759.389 249.693 755.453 245.839C751.517 241.903 748.442 237.352 746.228 232.186C744.014 227.02 742.907 221.485 742.907 215.581C742.907 209.677 744.014 204.183 746.228 199.099C748.442 193.933 751.476 189.382 755.33 185.446C759.266 181.51 763.817 178.435 768.983 176.221C774.149 174.007 779.684 172.9 785.588 172.9C791.492 172.9 797.027 174.007 802.193 176.221C807.359 178.435 811.869 181.51 815.723 185.446C819.659 189.3 822.734 193.81 824.948 198.976C827.162 204.142 828.269 209.677 828.269 215.581C828.269 221.485 827.162 227.02 824.948 232.186C822.816 237.352 819.782 241.903 815.846 245.839C811.992 249.693 807.482 252.727 802.316 254.941C797.15 257.155 791.574 258.262 785.588 258.262ZM769.598 225.052C772.222 225.052 774.436 224.109 776.24 222.223C778.126 220.337 779.069 218.123 779.069 215.581C779.069 212.957 778.126 210.743 776.24 208.939C774.436 207.053 772.222 206.11 769.598 206.11C767.056 206.11 764.842 207.053 762.956 208.939C761.07 210.743 760.127 212.957 760.127 215.581C760.127 218.123 761.07 220.337 762.956 222.223C764.842 224.109 767.056 225.052 769.598 225.052ZM801.578 225.052C804.202 225.052 806.416 224.109 808.22 222.223C810.106 220.337 811.049 218.123 811.049 215.581C811.049 212.957 810.106 210.743 808.22 208.939C806.416 207.053 804.202 206.11 801.578 206.11C799.036 206.11 796.822 207.053 794.936 208.939C793.05 210.743 792.107 212.957 792.107 215.581C792.107 218.123 793.05 220.337 794.936 222.223C796.822 224.109 799.036 225.052 801.578 225.052ZM931.429 136H968.329V222.1H931.429V136ZM894.529 222.1H931.429V308.2H894.529V222.1ZM57.8505 323.262C51.9465 323.262 46.4115 322.155 41.2455 319.941C36.1615 317.727 31.6515 314.693 27.7155 310.839C23.7795 306.903 20.7045 302.352 18.4905 297.186C16.2765 292.02 15.1695 286.485 15.1695 280.581C15.1695 274.677 16.2765 269.183 18.4905 264.099C20.7045 258.933 23.7385 254.382 27.5925 250.446C31.5285 246.51 36.0795 243.435 41.2455 241.221C46.4115 239.007 51.9465 237.9 57.8505 237.9C63.7545 237.9 69.2895 239.007 74.4555 241.221C79.6215 243.435 84.1315 246.51 87.9855 250.446C91.9215 254.3 94.9965 258.81 97.2105 263.976C99.4245 269.142 100.531 274.677 100.531 280.581C100.531 286.485 99.4245 292.02 97.2105 297.186C94.9965 302.352 91.9215 306.903 87.9855 310.839C84.1315 314.693 79.6215 317.727 74.4555 319.941C69.2895 322.155 63.7545 323.262 57.8505 323.262ZM57.8505 314.406C62.6065 314.406 67.0345 313.545 71.1345 311.823C75.2345 310.019 78.8015 307.559 81.8355 304.443C84.9515 301.327 87.3705 297.76 89.0925 293.742C90.8145 289.642 91.6755 285.255 91.6755 280.581C91.6755 275.825 90.7735 271.397 88.9695 267.297C87.2475 263.197 84.8285 259.63 81.7125 256.596C78.5965 253.48 74.9885 251.061 70.8885 249.339C66.8705 247.617 62.5245 246.756 57.8505 246.756C53.0945 246.756 48.6665 247.658 44.5665 249.462C40.4665 251.184 36.8585 253.603 33.7425 256.719C30.7085 259.835 28.3305 263.443 26.6085 267.543C24.8865 271.561 24.0255 275.907 24.0255 280.581C24.0255 285.337 24.8865 289.765 26.6085 293.865C28.4125 297.965 30.8725 301.573 33.9885 304.689C37.1045 307.723 40.6715 310.101 44.6895 311.823C48.7895 313.545 53.1765 314.406 57.8505 314.406ZM73.8405 290.052C71.2985 290.052 69.0845 289.15 67.1985 287.346C65.3125 285.46 64.3695 283.205 64.3695 280.581C64.3695 277.957 65.3125 275.743 67.1985 273.939C69.0845 272.053 71.2985 271.11 73.8405 271.11C76.4645 271.11 78.6785 272.053 80.4825 273.939C82.3685 275.743 83.3115 277.957 83.3115 280.581C83.3115 283.123 82.3685 285.337 80.4825 287.223C78.6785 289.109 76.4645 290.052 73.8405 290.052ZM218.083 373.2H208.489V282.303H161.995V272.709H218.083V373.2ZM198.895 373.2H189.301V301.491H161.995V291.897H198.895V373.2ZM300.544 373.2V287.1H337.444V373.2H300.544ZM440.569 324.492V234.456H530.605V324.492H440.569ZM525.07 315.636V293.742L471.565 239.991H449.548L525.07 315.636ZM525.07 285.993V263.607L501.577 239.991H479.437L525.07 285.993ZM525.07 255.735V239.991H509.326L525.07 255.735ZM498.379 318.957H520.396L446.104 244.542V266.436L498.379 318.957ZM469.474 318.957H490.507L446.104 274.185V295.341L469.474 318.957ZM446.104 318.957H461.602L446.104 303.213V318.957ZM596.876 373.2V287.1H633.776V373.2H596.876ZM779.582 323.262C773.678 323.262 768.143 322.155 762.977 319.941C757.893 317.727 753.383 314.693 749.447 310.839C745.511 306.903 742.436 302.352 740.222 297.186C738.008 292.02 736.901 286.485 736.901 280.581C736.901 274.677 738.008 269.183 740.222 264.099C742.436 258.933 745.47 254.382 749.324 250.446C753.26 246.51 757.811 243.435 762.977 241.221C768.143 239.007 773.678 237.9 779.582 237.9C785.486 237.9 791.021 239.007 796.187 241.221C801.353 243.435 805.863 246.51 809.717 250.446C813.653 254.3 816.728 258.81 818.942 263.976C821.156 269.142 822.263 274.677 822.263 280.581C822.263 286.485 821.156 292.02 818.942 297.186C816.81 302.352 813.776 306.903 809.84 310.839C805.986 314.693 801.476 317.727 796.31 319.941C791.144 322.155 785.568 323.262 779.582 323.262ZM763.592 290.052C766.216 290.052 768.43 289.109 770.234 287.223C772.12 285.337 773.063 283.123 773.063 280.581C773.063 277.957 772.12 275.743 770.234 273.939C768.43 272.053 766.216 271.11 763.592 271.11C761.05 271.11 758.836 272.053 756.95 273.939C755.064 275.743 754.121 277.957 754.121 280.581C754.121 283.123 755.064 285.337 756.95 287.223C758.836 289.109 761.05 290.052 763.592 290.052ZM795.572 290.052C798.196 290.052 800.41 289.109 802.214 287.223C804.1 285.337 805.043 283.123 805.043 280.581C805.043 277.957 804.1 275.743 802.214 273.939C800.41 272.053 798.196 271.11 795.572 271.11C793.03 271.11 790.816 272.053 788.93 273.939C787.044 275.743 786.101 277.957 786.101 280.581C786.101 283.123 787.044 285.337 788.93 287.223C790.816 289.109 793.03 290.052 795.572 290.052ZM894.796 324.492V234.456H984.832V324.492H894.796ZM979.297 315.636V293.742L925.792 239.991H903.775L979.297 315.636ZM979.297 285.993V263.607L955.804 239.991H933.664L979.297 285.993ZM979.297 255.735V239.991H963.553L979.297 255.735ZM952.606 318.957H974.623L900.331 244.542V266.436L952.606 318.957ZM923.701 318.957H944.734L900.331 274.185V295.341L923.701 318.957ZM900.331 318.957H915.829L900.331 303.213V318.957ZM33.6584 374.855V338.693H70.0664V374.855H33.6584ZM51.8624 373.379C54.2404 373.379 56.4544 372.969 58.5044 372.149C60.5544 371.329 62.3174 370.181 63.7934 368.705C65.2694 367.229 66.4174 365.466 67.2374 363.416C68.1394 361.366 68.5904 359.152 68.5904 356.774C68.5904 354.396 68.1394 352.182 67.2374 350.132C66.4174 348.082 65.2694 346.319 63.7934 344.843C62.3174 343.367 60.5544 342.219 58.5044 341.399C56.4544 340.579 54.2404 340.169 51.8624 340.169C49.4844 340.169 47.2704 340.579 45.2204 341.399C43.1704 342.219 41.4074 343.367 39.9314 344.843C38.4554 346.319 37.2664 348.082 36.3644 350.132C35.5444 352.182 35.1344 354.396 35.1344 356.774C35.1344 359.152 35.5444 361.366 36.3644 363.416C37.2664 365.466 38.4554 367.229 39.9314 368.705C41.4074 370.181 43.1704 371.329 45.2204 372.149C47.2704 372.969 49.4844 373.379 51.8624 373.379ZM154.987 389.492V299.456H245.023V389.492H154.987ZM200.128 311.51L206.524 304.991H193.855L200.128 311.51ZM185.245 326.393L196.192 315.446L185.983 304.991H184.384L174.052 315.323L185.245 326.393ZM170.239 311.387L176.512 304.991H163.966L170.239 311.387ZM215.011 326.393L226.081 315.323L215.995 304.991H214.273L204.064 315.446L215.011 326.393ZM230.017 311.387L236.29 304.991H223.744L230.017 311.387ZM160.522 320.981L166.303 315.323L160.522 309.542V320.981ZM239.488 320.735V309.788L234.076 315.323L239.488 320.735ZM170.362 341.276L181.309 330.329L170.239 319.382L160.522 328.976V331.436L170.362 341.276ZM229.771 341.276L239.488 331.682V328.607L230.017 319.382L218.947 330.452L229.771 341.276ZM200.128 341.276L211.198 330.329L200.128 319.382L189.181 330.329L200.128 341.276ZM185.245 356.159L196.192 345.212L185.245 334.265L174.298 345.212L185.245 356.159ZM215.011 356.159L225.958 345.212L215.011 334.388L204.064 345.335L215.011 356.159ZM160.522 351.239L166.426 345.212L160.522 339.185V351.239ZM239.488 350.993V339.554L233.707 345.212L239.488 350.993ZM170.854 370.673L181.309 360.095L170.362 349.148L160.522 359.111V360.341L170.854 370.673ZM229.525 370.673L239.488 360.587V358.742L229.771 349.148L218.947 360.095L229.525 370.673ZM200.128 371.288L211.198 360.095L200.128 349.271L189.181 360.341L200.128 371.288ZM212.797 383.957H216.364L225.589 374.732L215.011 364.031L204.064 375.224L212.797 383.957ZM183.892 383.957H187.459L196.192 375.224L185.245 364.154L174.667 374.732L183.892 383.957ZM160.522 380.882L166.918 374.609L160.522 368.213V380.882ZM239.488 380.636V368.705L233.461 374.732L239.488 380.636ZM224.236 383.957H234.814L229.525 378.668L224.236 383.957ZM165.565 383.957H176.02L170.854 378.668L165.565 383.957ZM195.331 383.957H204.925L200.128 379.16L195.331 383.957ZM317.567 389.492V299.456H407.603V389.492H317.567ZM323.102 350.993L368.735 304.991H346.595L323.102 328.607V350.993ZM323.102 380.636L398.624 304.991H376.607L323.102 358.742V380.636ZM323.102 320.735L338.846 304.991H323.102V320.735ZM327.776 383.957H349.793L402.068 331.436V309.542L327.776 383.957ZM357.665 383.957H378.698L402.068 360.341V339.185L357.665 383.957ZM386.57 383.957H402.068V368.213L386.57 383.957ZM510.775 438.2V352.1H547.675V438.2H510.775ZM658.917 438.2H649.323V347.303H602.829V337.709H658.917V438.2ZM639.729 438.2H630.135V366.491H602.829V356.897H639.729V438.2ZM747.651 344.474V295.766H845.067V344.474H838.794C838.794 338.57 837.687 333.076 835.473 327.992C833.341 322.826 830.307 318.316 826.371 314.462C822.517 310.526 818.007 307.492 812.841 305.36C807.757 303.146 802.263 302.039 796.359 302.039C790.455 302.039 784.92 303.146 779.754 305.36C774.67 307.492 770.16 310.526 766.224 314.462C762.37 318.316 759.336 322.826 757.122 327.992C754.99 333.076 753.924 338.57 753.924 344.474H747.651ZM760.812 344.474C760.812 339.554 761.714 334.962 763.518 330.698C765.404 326.352 767.946 322.58 771.144 319.382C774.424 316.102 778.196 313.56 782.46 311.756C786.806 309.87 791.439 308.927 796.359 308.927C801.279 308.927 805.871 309.87 810.135 311.756C814.481 313.56 818.253 316.102 821.451 319.382C824.731 322.58 827.273 326.352 829.077 330.698C830.963 334.962 831.906 339.554 831.906 344.474H760.812ZM911.286 438.2V416.675H985.086V438.2H911.286ZM72.2823 417.1V331H109.182V417.1H72.2823ZM206.034 503.2V417.1H242.934V503.2H206.034ZM309.159 454.492V364.456H399.195V454.492H309.159ZM314.694 415.993L360.327 369.991H338.187L314.694 393.607V415.993ZM314.694 445.636L390.216 369.991H368.199L314.694 423.742V445.636ZM314.694 385.735L330.438 369.991H314.694V385.735ZM319.368 448.957H341.385L393.66 396.436V374.542L319.368 448.957ZM349.257 448.957H370.29L393.66 425.341V404.185L349.257 448.957ZM378.162 448.957H393.66V433.213L378.162 448.957ZM544.063 412.303H497.569V503.2H487.975V402.709H544.063V412.303ZM544.063 431.491H516.757V503.2H507.163V421.897H544.063V431.491ZM599.218 503.2V374.05H673.018V503.2H599.218ZM781.924 453.262C776.02 453.262 770.485 452.155 765.319 449.941C760.235 447.727 755.725 444.693 751.789 440.839C747.853 436.903 744.778 432.352 742.564 427.186C740.35 422.02 739.243 416.485 739.243 410.581C739.243 404.677 740.35 399.183 742.564 394.099C744.778 388.933 747.812 384.382 751.666 380.446C755.602 376.51 760.153 373.435 765.319 371.221C770.485 369.007 776.02 367.9 781.924 367.9C787.828 367.9 793.363 369.007 798.529 371.221C803.695 373.435 808.205 376.51 812.059 380.446C815.995 384.3 819.07 388.81 821.284 393.976C823.498 399.142 824.605 404.677 824.605 410.581C824.605 416.485 823.498 422.02 821.284 427.186C819.152 432.352 816.118 436.903 812.182 440.839C808.328 444.693 803.818 447.727 798.652 449.941C793.486 452.155 787.91 453.262 781.924 453.262ZM765.934 420.052C768.558 420.052 770.772 419.109 772.576 417.223C774.462 415.337 775.405 413.123 775.405 410.581C775.405 407.957 774.462 405.743 772.576 403.939C770.772 402.053 768.558 401.11 765.934 401.11C763.392 401.11 761.178 402.053 759.292 403.939C757.406 405.743 756.463 407.957 756.463 410.581C756.463 413.123 757.406 415.337 759.292 417.223C761.178 419.109 763.392 420.052 765.934 420.052ZM797.914 420.052C800.538 420.052 802.752 419.109 804.556 417.223C806.442 415.337 807.385 413.123 807.385 410.581C807.385 407.957 806.442 405.743 804.556 403.939C802.752 402.053 800.538 401.11 797.914 401.11C795.372 401.11 793.158 402.053 791.272 403.939C789.386 405.743 788.443 407.957 788.443 410.581C788.443 413.123 789.386 415.337 791.272 417.223C793.158 419.109 795.372 420.052 797.914 420.052ZM927.766 503.2V417.1H964.666V503.2H927.766ZM61.8682 568.2V482.1H135.668V568.2H61.8682ZM190.823 477.303V467.709H274.217V477.303H190.823ZM274.217 496.491H246.911V568.2H237.317V486.897H274.217V496.491ZM227.723 568.2H218.129V496.491H190.823V486.897H227.723V568.2ZM329.372 417.525V396H403.172V417.525H329.372ZM514.415 568.2H504.821V477.303H458.327V467.709H514.415V568.2ZM495.227 568.2H485.633V496.491H458.327V486.897H495.227V568.2ZM615.572 504.855V468.693H651.98V504.855H615.572ZM633.776 503.379C636.154 503.379 638.368 502.969 640.418 502.149C642.468 501.329 644.231 500.181 645.707 498.705C647.183 497.229 648.331 495.466 649.151 493.416C650.053 491.366 650.504 489.152 650.504 486.774C650.504 484.396 650.053 482.182 649.151 480.132C648.331 478.082 647.183 476.319 645.707 474.843C644.231 473.367 642.468 472.219 640.418 471.399C638.368 470.579 636.154 470.169 633.776 470.169C631.398 470.169 629.184 470.579 627.134 471.399C625.084 472.219 623.321 473.367 621.845 474.843C620.369 476.319 619.18 478.082 618.278 480.132C617.458 482.182 617.048 484.396 617.048 486.774C617.048 489.152 617.458 491.366 618.278 493.416C619.18 495.466 620.369 497.229 621.845 498.705C623.321 500.181 625.084 501.329 627.134 502.149C629.184 502.969 631.398 503.379 633.776 503.379ZM738.992 506.7V450.12H796.064V506.7H738.992ZM767.528 506.208C771.628 506.208 775.4 505.511 778.844 504.117C782.288 502.723 785.24 500.796 787.7 498.336C790.16 495.794 792.087 492.842 793.481 489.48C794.875 486.036 795.572 482.346 795.572 478.41C795.572 474.474 794.875 470.825 793.481 467.463C792.087 464.019 790.16 461.067 787.7 458.607C785.24 456.065 782.288 454.097 778.844 452.703C775.4 451.309 771.628 450.612 767.528 450.612C763.428 450.612 759.656 451.309 756.212 452.703C752.768 454.097 749.816 456.065 747.356 458.607C744.896 461.067 742.969 464.019 741.575 467.463C740.181 470.825 739.484 474.474 739.484 478.41C739.484 482.346 740.181 486.036 741.575 489.48C742.969 492.842 744.896 495.794 747.356 498.336C749.816 500.796 752.768 502.723 756.212 504.117C759.656 505.511 763.428 506.208 767.528 506.208ZM767.528 500.181C764.494 500.181 761.665 499.648 759.041 498.582C756.499 497.516 754.285 496.04 752.399 494.154C750.595 492.186 749.16 489.89 748.094 487.266C747.028 484.56 746.495 481.608 746.495 478.41C746.495 475.212 747.028 472.301 748.094 469.677C749.16 466.971 750.595 464.675 752.399 462.789C754.285 460.821 756.499 459.304 759.041 458.238C761.665 457.172 764.494 456.639 767.528 456.639C770.562 456.639 773.35 457.172 775.892 458.238C778.516 459.304 780.73 460.821 782.534 462.789C784.42 464.675 785.896 466.971 786.962 469.677C788.028 472.301 788.561 475.212 788.561 478.41C788.561 481.608 788.028 484.56 786.962 487.266C785.896 489.89 784.42 492.186 782.534 494.154C780.73 496.04 778.516 497.516 775.892 498.582C773.35 499.648 770.562 500.181 767.528 500.181ZM864.38 568.2V396H901.28V482.1H938.18V568.2H864.38ZM37.9918 588.182V539.474H44.2648C44.2648 545.378 45.3308 550.913 47.4628 556.079C49.6768 561.163 52.7108 565.673 56.5648 569.609C60.5008 573.463 65.0108 576.497 70.0948 578.711C75.2608 580.843 80.7958 581.909 86.6998 581.909C92.6038 581.909 98.0978 580.843 103.182 578.711C108.348 576.497 112.858 573.463 116.712 569.609C120.648 565.673 123.682 561.163 125.814 556.079C128.028 550.913 129.135 545.378 129.135 539.474H135.408V588.182H37.9918ZM86.6998 575.021C81.7798 575.021 77.1468 574.119 72.8008 572.315C68.5368 570.429 64.7648 567.887 61.4848 564.689C58.2868 561.409 55.7448 557.637 53.8588 553.373C52.0548 549.027 51.1528 544.394 51.1528 539.474H122.247C122.247 544.394 121.304 549.027 119.418 553.373C117.614 557.637 115.072 561.409 111.792 564.689C108.594 567.887 104.822 570.429 100.476 572.315C96.2118 574.119 91.6198 575.021 86.6998 575.021ZM201.626 633.2V461H238.526V547.1H275.426V633.2H201.626ZM409.178 547.1H372.278V633.2H335.378V461H409.178V547.1ZM469.13 633.2V461H506.03V547.1H542.93V633.2H469.13ZM681.479 542.303H634.985V633.2H625.391V532.709H681.479V542.303ZM681.479 561.491H654.173V633.2H644.579V551.897H681.479V561.491ZM785.588 583.262C779.684 583.262 774.149 582.155 768.983 579.941C763.899 577.727 759.389 574.693 755.453 570.839C751.517 566.903 748.442 562.352 746.228 557.186C744.014 552.02 742.907 546.485 742.907 540.581C742.907 534.677 744.014 529.183 746.228 524.099C748.442 518.933 751.476 514.382 755.33 510.446C759.266 506.51 763.817 503.435 768.983 501.221C774.149 499.007 779.684 497.9 785.588 497.9C791.492 497.9 797.027 499.007 802.193 501.221C807.359 503.435 811.869 506.51 815.723 510.446C819.659 514.3 822.734 518.81 824.948 523.976C827.162 529.142 828.269 534.677 828.269 540.581C828.269 546.485 827.162 552.02 824.948 557.186C822.816 562.352 819.782 566.903 815.846 570.839C811.992 574.693 807.482 577.727 802.316 579.941C797.15 582.155 791.574 583.262 785.588 583.262ZM769.598 550.052C772.222 550.052 774.436 549.109 776.24 547.223C778.126 545.337 779.069 543.123 779.069 540.581C779.069 537.957 778.126 535.743 776.24 533.939C774.436 532.053 772.222 531.11 769.598 531.11C767.056 531.11 764.842 532.053 762.956 533.939C761.07 535.743 760.127 537.957 760.127 540.581C760.127 543.123 761.07 545.337 762.956 547.223C764.842 549.109 767.056 550.052 769.598 550.052ZM801.578 550.052C804.202 550.052 806.416 549.109 808.22 547.223C810.106 545.337 811.049 543.123 811.049 540.581C811.049 537.957 810.106 535.743 808.22 533.939C806.416 532.053 804.202 531.11 801.578 531.11C799.036 531.11 796.822 532.053 794.936 533.939C793.05 535.743 792.107 537.957 792.107 540.581C792.107 543.123 793.05 545.337 794.936 547.223C796.822 549.109 799.036 550.052 801.578 550.052ZM931.429 461H968.329V547.1H931.429V461ZM894.529 547.1H931.429V633.2H894.529V547.1ZM57.8505 648.262C51.9465 648.262 46.4115 647.155 41.2455 644.941C36.1615 642.727 31.6515 639.693 27.7155 635.839C23.7795 631.903 20.7045 627.352 18.4905 622.186C16.2765 617.02 15.1695 611.485 15.1695 605.581C15.1695 599.677 16.2765 594.183 18.4905 589.099C20.7045 583.933 23.7385 579.382 27.5925 575.446C31.5285 571.51 36.0795 568.435 41.2455 566.221C46.4115 564.007 51.9465 562.9 57.8505 562.9C63.7545 562.9 69.2895 564.007 74.4555 566.221C79.6215 568.435 84.1315 571.51 87.9855 575.446C91.9215 579.3 94.9965 583.81 97.2105 588.976C99.4245 594.142 100.531 599.677 100.531 605.581C100.531 611.485 99.4245 617.02 97.2105 622.186C94.9965 627.352 91.9215 631.903 87.9855 635.839C84.1315 639.693 79.6215 642.727 74.4555 644.941C69.2895 647.155 63.7545 648.262 57.8505 648.262ZM57.8505 639.406C62.6065 639.406 67.0345 638.545 71.1345 636.823C75.2345 635.019 78.8015 632.559 81.8355 629.443C84.9515 626.327 87.3705 622.76 89.0925 618.742C90.8145 614.642 91.6755 610.255 91.6755 605.581C91.6755 600.825 90.7735 596.397 88.9695 592.297C87.2475 588.197 84.8285 584.63 81.7125 581.596C78.5965 578.48 74.9885 576.061 70.8885 574.339C66.8705 572.617 62.5245 571.756 57.8505 571.756C53.0945 571.756 48.6665 572.658 44.5665 574.462C40.4665 576.184 36.8585 578.603 33.7425 581.719C30.7085 584.835 28.3305 588.443 26.6085 592.543C24.8865 596.561 24.0255 600.907 24.0255 605.581C24.0255 610.337 24.8865 614.765 26.6085 618.865C28.4125 622.965 30.8725 626.573 33.9885 629.689C37.1045 632.723 40.6715 635.101 44.6895 636.823C48.7895 638.545 53.1765 639.406 57.8505 639.406ZM73.8405 615.052C71.2985 615.052 69.0845 614.15 67.1985 612.346C65.3125 610.46 64.3695 608.205 64.3695 605.581C64.3695 602.957 65.3125 600.743 67.1985 598.939C69.0845 597.053 71.2985 596.11 73.8405 596.11C76.4645 596.11 78.6785 597.053 80.4825 598.939C82.3685 600.743 83.3115 602.957 83.3115 605.581C83.3115 608.123 82.3685 610.337 80.4825 612.223C78.6785 614.109 76.4645 615.052 73.8405 615.052ZM218.083 698.2H208.489V607.303H161.995V597.709H218.083V698.2ZM198.895 698.2H189.301V626.491H161.995V616.897H198.895V698.2ZM300.544 698.2V612.1H337.444V698.2H300.544ZM440.569 649.492V559.456H530.605V649.492H440.569ZM525.07 640.636V618.742L471.565 564.991H449.548L525.07 640.636ZM525.07 610.993V588.607L501.577 564.991H479.437L525.07 610.993ZM525.07 580.735V564.991H509.326L525.07 580.735ZM498.379 643.957H520.396L446.104 569.542V591.436L498.379 643.957ZM469.474 643.957H490.507L446.104 599.185V620.341L469.474 643.957ZM446.104 643.957H461.602L446.104 628.213V643.957ZM596.876 698.2V612.1H633.776V698.2H596.876ZM779.582 648.262C773.678 648.262 768.143 647.155 762.977 644.941C757.893 642.727 753.383 639.693 749.447 635.839C745.511 631.903 742.436 627.352 740.222 622.186C738.008 617.02 736.901 611.485 736.901 605.581C736.901 599.677 738.008 594.183 740.222 589.099C742.436 583.933 745.47 579.382 749.324 575.446C753.26 571.51 757.811 568.435 762.977 566.221C768.143 564.007 773.678 562.9 779.582 562.9C785.486 562.9 791.021 564.007 796.187 566.221C801.353 568.435 805.863 571.51 809.717 575.446C813.653 579.3 816.728 583.81 818.942 588.976C821.156 594.142 822.263 599.677 822.263 605.581C822.263 611.485 821.156 617.02 818.942 622.186C816.81 627.352 813.776 631.903 809.84 635.839C805.986 639.693 801.476 642.727 796.31 644.941C791.144 647.155 785.568 648.262 779.582 648.262ZM763.592 615.052C766.216 615.052 768.43 614.109 770.234 612.223C772.12 610.337 773.063 608.123 773.063 605.581C773.063 602.957 772.12 600.743 770.234 598.939C768.43 597.053 766.216 596.11 763.592 596.11C761.05 596.11 758.836 597.053 756.95 598.939C755.064 600.743 754.121 602.957 754.121 605.581C754.121 608.123 755.064 610.337 756.95 612.223C758.836 614.109 761.05 615.052 763.592 615.052ZM795.572 615.052C798.196 615.052 800.41 614.109 802.214 612.223C804.1 610.337 805.043 608.123 805.043 605.581C805.043 602.957 804.1 600.743 802.214 598.939C800.41 597.053 798.196 596.11 795.572 596.11C793.03 596.11 790.816 597.053 788.93 598.939C787.044 600.743 786.101 602.957 786.101 605.581C786.101 608.123 787.044 610.337 788.93 612.223C790.816 614.109 793.03 615.052 795.572 615.052ZM894.796 649.492V559.456H984.832V649.492H894.796ZM979.297 640.636V618.742L925.792 564.991H903.775L979.297 640.636ZM979.297 610.993V588.607L955.804 564.991H933.664L979.297 610.993ZM979.297 580.735V564.991H963.553L979.297 580.735ZM952.606 643.957H974.623L900.331 569.542V591.436L952.606 643.957ZM923.701 643.957H944.734L900.331 599.185V620.341L923.701 643.957ZM900.331 643.957H915.829L900.331 628.213V643.957ZM319.24 699.855V663.693H355.648V699.855H319.24ZM337.444 698.379C339.822 698.379 342.036 697.969 344.086 697.149C346.136 696.329 347.899 695.181 349.375 693.705C350.851 692.229 351.999 690.466 352.819 688.416C353.721 686.366 354.172 684.152 354.172 681.774C354.172 679.396 353.721 677.182 352.819 675.132C351.999 673.082 350.851 671.319 349.375 669.843C347.899 668.367 346.136 667.219 344.086 666.399C342.036 665.579 339.822 665.169 337.444 665.169C335.066 665.169 332.852 665.579 330.802 666.399C328.752 667.219 326.989 668.367 325.513 669.843C324.037 671.319 322.848 673.082 321.946 675.132C321.126 677.182 320.716 679.396 320.716 681.774C320.716 684.152 321.126 686.366 321.946 688.416C322.848 690.466 324.037 692.229 325.513 693.705C326.989 695.181 328.752 696.329 330.802 697.149C332.852 697.969 335.066 698.379 337.444 698.379ZM440.569 714.492V624.456H530.605V714.492H440.569ZM485.71 636.51L492.106 629.991H479.437L485.71 636.51ZM470.827 651.393L481.774 640.446L471.565 629.991H469.966L459.634 640.323L470.827 651.393ZM455.821 636.387L462.094 629.991H449.548L455.821 636.387ZM500.593 651.393L511.663 640.323L501.577 629.991H499.855L489.646 640.446L500.593 651.393ZM515.599 636.387L521.872 629.991H509.326L515.599 636.387ZM446.104 645.981L451.885 640.323L446.104 634.542V645.981ZM525.07 645.735V634.788L519.658 640.323L525.07 645.735ZM455.944 666.276L466.891 655.329L455.821 644.382L446.104 653.976V656.436L455.944 666.276ZM515.353 666.276L525.07 656.682V653.607L515.599 644.382L504.529 655.452L515.353 666.276ZM485.71 666.276L496.78 655.329L485.71 644.382L474.763 655.329L485.71 666.276ZM470.827 681.159L481.774 670.212L470.827 659.265L459.88 670.212L470.827 681.159ZM500.593 681.159L511.54 670.212L500.593 659.388L489.646 670.335L500.593 681.159ZM446.104 676.239L452.008 670.212L446.104 664.185V676.239ZM525.07 675.993V664.554L519.289 670.212L525.07 675.993ZM456.436 695.673L466.891 685.095L455.944 674.148L446.104 684.111V685.341L456.436 695.673ZM515.107 695.673L525.07 685.587V683.742L515.353 674.148L504.529 685.095L515.107 695.673ZM485.71 696.288L496.78 685.095L485.71 674.271L474.763 685.341L485.71 696.288ZM498.379 708.957H501.946L511.171 699.732L500.593 689.031L489.646 700.224L498.379 708.957ZM469.474 708.957H473.041L481.774 700.224L470.827 689.154L460.249 699.732L469.474 708.957ZM446.104 705.882L452.5 699.609L446.104 693.213V705.882ZM525.07 705.636V693.705L519.043 699.732L525.07 705.636ZM509.818 708.957H520.396L515.107 703.668L509.818 708.957ZM451.147 708.957H461.602L456.436 703.668L451.147 708.957ZM480.913 708.957H490.507L485.71 704.16L480.913 708.957ZM603.149 714.492V624.456H693.185V714.492H603.149ZM608.684 675.993L654.317 629.991H632.177L608.684 653.607V675.993ZM608.684 705.636L684.206 629.991H662.189L608.684 683.742V705.636ZM608.684 645.735L624.428 629.991H608.684V645.735ZM613.358 708.957H635.375L687.65 656.436V634.542L613.358 708.957ZM643.247 708.957H664.28L687.65 685.341V664.185L643.247 708.957ZM672.152 708.957H687.65V693.213L672.152 708.957Z" fill="#D9F688"/>
<path d="M429.025 128.661C437.524 128.661 442.94 123.619 443.513 116.441H435.895C435.212 120.074 432.592 122.165 429.091 122.165C424.116 122.165 420.901 118.004 420.901 111.091C420.901 104.266 424.182 100.17 429.091 100.17C432.922 100.17 435.278 102.636 435.895 105.895H443.513C442.962 98.5632 437.238 93.7415 428.981 93.7415C419.074 93.7415 412.821 100.897 412.821 111.223C412.821 121.461 418.919 128.661 429.025 128.661ZM476.786 103.121C475.685 97.3963 471.105 93.7415 463.179 93.7415C455.033 93.7415 449.485 97.7486 449.507 104.001C449.485 108.933 452.523 112.192 459.018 113.535L464.786 114.746C467.891 115.428 469.344 116.683 469.344 118.599C469.344 120.911 466.834 122.65 463.047 122.65C459.392 122.65 457.014 121.065 456.332 118.026L448.56 118.775C449.551 124.984 454.769 128.661 463.069 128.661C471.524 128.661 477.49 124.279 477.512 117.872C477.49 113.05 474.386 110.1 468.001 108.713L462.233 107.48C458.798 106.71 457.433 105.521 457.455 103.561C457.433 101.271 459.965 99.6861 463.289 99.6861C466.966 99.6861 468.904 101.69 469.52 103.913L476.786 103.121ZM510.813 103.121C509.712 97.3963 505.133 93.7415 497.207 93.7415C489.06 93.7415 483.512 97.7486 483.534 104.001C483.512 108.933 486.55 112.192 493.045 113.535L498.814 114.746C501.918 115.428 503.371 116.683 503.371 118.599C503.371 120.911 500.861 122.65 497.074 122.65C493.42 122.65 491.042 121.065 490.359 118.026L482.587 118.775C483.578 124.984 488.796 128.661 497.097 128.661C505.551 128.661 511.518 124.279 511.54 117.872C511.518 113.05 508.413 110.1 502.028 108.713L496.26 107.48C492.825 106.71 491.46 105.521 491.482 103.561C491.46 101.271 493.992 99.6861 497.317 99.6861C500.994 99.6861 502.931 101.69 503.547 103.913L510.813 103.121ZM533.083 128.661C540.965 128.661 546.382 124.808 547.791 118.929L540.349 118.092C539.27 120.955 536.628 122.452 533.193 122.452C528.041 122.452 524.629 119.061 524.563 113.271H548.121V110.827C548.121 98.9595 540.987 93.7415 532.665 93.7415C522.978 93.7415 516.659 100.853 516.659 111.289C516.659 121.901 522.889 128.661 533.083 128.661ZM524.585 107.898C524.827 103.583 528.019 99.9503 532.775 99.9503C537.355 99.9503 540.437 103.297 540.481 107.898H524.585ZM567.413 128.594C573.226 128.594 575.846 125.138 577.101 122.672H577.585V128H585.423V82.9091H577.431V99.7741H577.101C575.89 97.3303 573.402 93.7415 567.435 93.7415C559.619 93.7415 553.477 99.8622 553.477 111.135C553.477 122.276 559.443 128.594 567.413 128.594ZM569.637 122.055C564.375 122.055 561.601 117.432 561.601 111.091C561.601 104.794 564.331 100.281 569.637 100.281C574.767 100.281 577.585 104.53 577.585 111.091C577.585 117.652 574.723 122.055 569.637 122.055ZM125.05 187.5C123.889 181.087 118.759 177.3 112.467 177.3C104.466 177.3 98.6635 183.469 98.6635 193.364C98.6635 203.259 104.466 209.428 112.467 209.428C118.759 209.428 123.889 205.641 125.05 199.227H121.263C120.347 203.564 116.621 205.885 112.467 205.885C106.787 205.885 102.328 201.487 102.328 193.364C102.328 185.24 106.787 180.842 112.467 180.842C116.621 180.842 120.347 183.163 121.263 187.5H125.05ZM148.272 185.545H151.936C151.768 180.827 147.416 177.3 141.37 177.3C135.384 177.3 130.681 180.781 130.681 186.034C130.681 190.249 133.735 192.753 138.621 194.158L142.469 195.257C145.767 196.173 148.699 197.334 148.699 200.449C148.699 203.869 145.401 206.129 141.064 206.129C137.338 206.129 134.04 204.48 133.735 200.938H129.826C130.192 206.068 134.345 209.55 141.064 209.55C148.272 209.55 152.364 205.58 152.364 200.51C152.364 194.646 146.806 192.753 143.568 191.898L140.392 191.043C138.071 190.432 134.345 189.21 134.345 185.851C134.345 182.858 137.094 180.659 141.247 180.659C145.034 180.659 147.905 182.461 148.272 185.545ZM175.692 185.545H179.357C179.189 180.827 174.837 177.3 168.79 177.3C162.805 177.3 158.102 180.781 158.102 186.034C158.102 190.249 161.155 192.753 166.042 194.158L169.89 195.257C173.188 196.173 176.12 197.334 176.12 200.449C176.12 203.869 172.822 206.129 168.485 206.129C164.759 206.129 161.461 204.48 161.155 200.938H157.246C157.613 206.068 161.766 209.55 168.485 209.55C175.692 209.55 179.785 205.58 179.785 200.51C179.785 194.646 174.227 192.753 170.989 191.898L167.813 191.043C165.492 190.432 161.766 189.21 161.766 185.851C161.766 182.858 164.515 180.659 168.668 180.659C172.455 180.659 175.326 182.461 175.692 185.545ZM198.96 193.913H185.278V197.273H198.96V193.913ZM205.301 209H208.904V185.545H205.301V209ZM207.133 181.636C208.538 181.636 209.698 180.537 209.698 179.193C209.698 177.849 208.538 176.75 207.133 176.75C205.728 176.75 204.568 177.849 204.568 179.193C204.568 180.537 205.728 181.636 207.133 181.636ZM219.109 194.891C219.109 190.798 221.643 188.477 225.094 188.477C228.438 188.477 230.469 190.661 230.469 194.341V209H234.073V194.097C234.073 188.111 230.882 185.24 226.133 185.24C222.59 185.24 220.391 186.828 219.292 189.21H218.986V185.545H215.505V209H219.109V194.891ZM254.096 193.913H240.414V197.273H254.096V193.913ZM272.897 177.727V200.082C272.897 203.976 271.034 206.068 267.766 206.068C264.788 206.068 262.635 204.327 262.635 201.67H258.909C258.909 206.48 262.635 209.428 267.766 209.428C273.202 209.428 276.684 206.083 276.684 200.082V177.727H272.897ZM301.375 185.545H305.04C304.872 180.827 300.52 177.3 294.473 177.3C288.487 177.3 283.784 180.781 283.784 186.034C283.784 190.249 286.838 192.753 291.724 194.158L295.572 195.257C298.871 196.173 301.803 197.334 301.803 200.449C301.803 203.869 298.504 206.129 294.168 206.129C290.442 206.129 287.144 204.48 286.838 200.938H282.929C283.295 206.068 287.449 209.55 294.168 209.55C301.375 209.55 305.467 205.58 305.467 200.51C305.467 194.646 299.909 192.753 296.672 191.898L293.496 191.043C291.175 190.432 287.449 189.21 287.449 185.851C287.449 182.858 290.197 180.659 294.351 180.659C298.138 180.659 301.009 182.461 301.375 185.545ZM333.499 185.545H328.491V179.926H324.887V185.545H321.344V188.599H324.887V203.259C324.887 207.351 328.185 209.305 331.239 209.305C332.583 209.305 333.438 209.061 333.927 208.878L333.194 205.641C332.888 205.702 332.4 205.824 331.606 205.824C330.018 205.824 328.491 205.335 328.491 202.281V188.599H333.499V185.545ZM343.027 194.891C343.027 190.798 345.639 188.477 349.197 188.477C352.586 188.477 354.633 190.615 354.633 194.341V209H358.236V194.097C358.236 188.065 355.03 185.24 350.235 185.24C346.54 185.24 344.432 186.782 343.333 189.21H343.027V177.727H339.424V209H343.027V194.891ZM371.731 209.55C375.823 209.55 377.961 207.351 378.694 205.824H378.877V209H382.481V193.547C382.481 186.095 376.801 185.24 373.808 185.24C370.265 185.24 366.234 186.462 364.402 190.737L367.822 191.959C368.616 190.249 370.494 188.416 373.93 188.416C377.243 188.416 378.877 190.172 378.877 193.18V193.303C378.877 195.043 377.106 194.891 372.83 195.44C368.479 196.005 363.73 196.967 363.73 202.342C363.73 206.923 367.272 209.55 371.731 209.55ZM372.281 206.312C369.41 206.312 367.333 205.03 367.333 202.526C367.333 199.777 369.838 198.922 372.647 198.555C374.174 198.372 378.267 197.945 378.877 197.212V200.51C378.877 203.442 376.556 206.312 372.281 206.312ZM399.259 185.545H394.25V179.926H390.647V185.545H387.104V188.599H390.647V203.259C390.647 207.351 393.945 209.305 396.999 209.305C398.343 209.305 399.198 209.061 399.686 208.878L398.953 205.641C398.648 205.702 398.159 205.824 397.365 205.824C395.777 205.824 394.25 205.335 394.25 202.281V188.599H399.259V185.545ZM416.773 185.545V210.71C416.773 213.092 415.796 214.436 413.597 214.436H412.925V217.795H413.658C418.178 217.795 420.377 215.047 420.377 210.71V185.545H416.773ZM418.545 181.636C419.95 181.636 421.11 180.537 421.11 179.193C421.11 177.849 419.95 176.75 418.545 176.75C417.14 176.75 415.979 177.849 415.979 179.193C415.979 180.537 417.14 181.636 418.545 181.636ZM441.759 199.411C441.759 203.808 438.399 205.824 435.712 205.824C432.719 205.824 430.581 203.625 430.581 200.205V185.545H426.977V200.449C426.977 206.435 430.154 209.305 434.551 209.305C438.094 209.305 440.415 207.412 441.514 205.03H441.759V209H445.362V185.545H441.759V199.411ZM468.576 190.798C467.447 187.469 464.912 185.24 460.27 185.24C455.322 185.24 451.657 188.05 451.657 192.02C451.657 195.257 453.581 197.425 457.888 198.433L461.797 199.349C464.163 199.899 465.278 201.029 465.278 202.648C465.278 204.663 463.14 206.312 459.781 206.312C456.834 206.312 454.986 205.045 454.345 202.526L450.924 203.381C451.764 207.366 455.047 209.489 459.842 209.489C465.293 209.489 469.004 206.511 469.004 202.464C469.004 199.197 466.958 197.135 462.774 196.112L459.292 195.257C456.513 194.57 455.261 193.638 455.261 191.837C455.261 189.821 457.399 188.355 460.27 188.355C463.415 188.355 464.713 190.096 465.339 191.714L468.576 190.798ZM484.629 185.545H479.62V179.926H476.017V185.545H472.474V188.599H476.017V203.259C476.017 207.351 479.315 209.305 482.369 209.305C483.713 209.305 484.568 209.061 485.057 208.878L484.324 205.641C484.018 205.702 483.53 205.824 482.735 205.824C481.147 205.824 479.62 205.335 479.62 202.281V188.599H484.629V185.545ZM507.457 209H511L516.131 190.982H516.497L521.628 209H525.171L532.317 185.545H528.53L523.46 203.442H523.216L518.269 185.545H514.42L509.412 203.503H509.168L504.098 185.545H500.311L507.457 209ZM545.812 209.489C552.164 209.489 556.439 204.663 556.439 197.395C556.439 190.065 552.164 185.24 545.812 185.24C539.459 185.24 535.184 190.065 535.184 197.395C535.184 204.663 539.459 209.489 545.812 209.489ZM545.812 206.251C540.986 206.251 538.787 202.098 538.787 197.395C538.787 192.692 540.986 188.477 545.812 188.477C550.637 188.477 552.836 192.692 552.836 197.395C552.836 202.098 550.637 206.251 545.812 206.251ZM561.94 209H565.544V194.158C565.544 190.982 568.048 188.661 571.469 188.661C572.431 188.661 573.423 188.844 573.668 188.905V185.24C573.255 185.21 572.309 185.179 571.774 185.179C568.965 185.179 566.521 186.767 565.666 189.088H565.422V185.545H561.94V209ZM577.939 209H581.543V200.22L584.063 197.884L592.843 209H597.424L586.781 195.562L596.691 185.545H592.232L581.971 195.99H581.543V177.727H577.939V209ZM617.943 190.798C616.813 187.469 614.278 185.24 609.636 185.24C604.688 185.24 601.024 188.05 601.024 192.02C601.024 195.257 602.948 197.425 607.254 198.433L611.163 199.349C613.53 199.899 614.644 201.029 614.644 202.648C614.644 204.663 612.507 206.312 609.147 206.312C606.2 206.312 604.352 205.045 603.711 202.526L600.291 203.381C601.131 207.366 604.414 209.489 609.208 209.489C614.66 209.489 618.37 206.511 618.37 202.464C618.37 199.197 616.324 197.135 612.14 196.112L608.659 195.257C605.879 194.57 604.627 193.638 604.627 191.837C604.627 189.821 606.765 188.355 609.636 188.355C612.781 188.355 614.079 190.096 614.705 191.714L617.943 190.798ZM626.421 209.244C627.933 209.244 629.17 208.007 629.17 206.496C629.17 204.984 627.933 203.747 626.421 203.747C624.91 203.747 623.673 204.984 623.673 206.496C623.673 208.007 624.91 209.244 626.421 209.244ZM673.017 177.727H669.292V202.342H668.986L651.884 177.727H648.219V209H652.006V184.446H652.311L669.353 209H673.017V177.727ZM689.635 209.489C695.987 209.489 700.263 204.663 700.263 197.395C700.263 190.065 695.987 185.24 689.635 185.24C683.283 185.24 679.007 190.065 679.007 197.395C679.007 204.663 683.283 209.489 689.635 209.489ZM689.635 206.251C684.81 206.251 682.611 202.098 682.611 197.395C682.611 192.692 684.81 188.477 689.635 188.477C694.46 188.477 696.659 192.692 696.659 197.395C696.659 202.098 694.46 206.251 689.635 206.251ZM727.325 218.284C732.944 218.284 737.464 215.719 737.464 209.672V185.545H733.982V189.271H733.616C732.822 188.05 731.356 185.24 726.775 185.24C720.85 185.24 716.758 189.943 716.758 197.151C716.758 204.48 721.034 208.634 726.714 208.634C731.295 208.634 732.761 205.946 733.555 204.663H733.86V209.428C733.86 213.337 731.112 215.108 727.325 215.108C723.064 215.108 721.568 212.863 720.606 211.565L717.735 213.581C719.201 216.039 722.087 218.284 727.325 218.284ZM727.203 205.396C722.683 205.396 720.362 201.976 720.362 197.089C720.362 192.325 722.622 188.477 727.203 188.477C731.6 188.477 733.921 192.02 733.921 197.089C733.921 202.281 731.539 205.396 727.203 205.396ZM744.061 209H747.664V185.545H744.061V209ZM745.893 181.636C747.298 181.636 748.458 180.537 748.458 179.193C748.458 177.849 747.298 176.75 745.893 176.75C744.488 176.75 743.328 177.849 743.328 179.193C743.328 180.537 744.488 181.636 745.893 181.636ZM754.265 209H757.868V194.341C757.868 190.905 760.373 188.477 763.182 188.477C765.916 188.477 767.824 190.264 767.824 192.936V209H771.489V193.73C771.489 190.707 773.383 188.477 776.681 188.477C779.246 188.477 781.445 189.836 781.445 193.303V209H785.049V193.303C785.049 187.79 782.086 185.24 777.902 185.24C774.543 185.24 772.085 186.782 770.878 189.21H770.634C769.473 186.706 767.427 185.24 764.343 185.24C761.289 185.24 759.029 186.706 758.052 189.21H757.746V185.545H754.265V209ZM791.638 209H795.241V194.341C795.241 190.905 797.746 188.477 800.555 188.477C803.289 188.477 805.197 190.264 805.197 192.936V209H808.862V193.73C808.862 190.707 810.756 188.477 814.054 188.477C816.619 188.477 818.818 189.836 818.818 193.303V209H822.422V193.303C822.422 187.79 819.459 185.24 815.275 185.24C811.916 185.24 809.458 186.782 808.251 189.21H808.007C806.846 186.706 804.8 185.24 801.716 185.24C798.662 185.24 796.402 186.706 795.425 189.21H795.119V185.545H791.638V209ZM829.011 209H832.614V185.545H829.011V209ZM830.843 181.636C832.248 181.636 833.408 180.537 833.408 179.193C833.408 177.849 832.248 176.75 830.843 176.75C829.438 176.75 828.278 177.849 828.278 179.193C828.278 180.537 829.438 181.636 830.843 181.636ZM848.743 209.489C853.935 209.489 857.355 206.312 857.966 202.159H854.363C853.691 204.724 851.553 206.251 848.743 206.251C844.468 206.251 841.719 202.709 841.719 197.273C841.719 191.959 844.529 188.477 848.743 188.477C851.919 188.477 853.813 190.432 854.363 192.57H857.966C857.355 188.172 853.63 185.24 848.682 185.24C842.33 185.24 838.115 190.249 838.115 197.395C838.115 204.419 842.147 209.489 848.743 209.489ZM879.848 190.798C878.718 187.469 876.183 185.24 871.541 185.24C866.594 185.24 862.929 188.05 862.929 192.02C862.929 195.257 864.853 197.425 869.159 198.433L873.068 199.349C875.435 199.899 876.55 201.029 876.55 202.648C876.55 204.663 874.412 206.312 871.053 206.312C868.105 206.312 866.258 205.045 865.616 202.526L862.196 203.381C863.036 207.366 866.319 209.489 871.114 209.489C876.565 209.489 880.276 206.511 880.276 202.464C880.276 199.197 878.229 197.135 874.045 196.112L870.564 195.257C867.785 194.57 866.533 193.638 866.533 191.837C866.533 189.821 868.67 188.355 871.541 188.355C874.687 188.355 875.985 190.096 876.611 191.714L879.848 190.798ZM891.686 195.318H894.618L894.373 188.599L900.054 192.203L901.52 189.638L895.534 186.523L901.52 183.408L900.054 180.842L894.373 184.446L894.618 177.727H891.686L891.93 184.446L886.25 180.842L884.784 183.408L890.77 186.523L884.784 189.638L886.25 192.203L891.93 188.599L891.686 195.318Z" fill="#3A3A3A"/>
</g>
<defs>
<clipPath id="clip0">
<rect width="1000" height="300" fill="white"/>
</clipPath>
</defs>
</svg>
